<svg xmlns="http://www.w3.org/2000/svg" xmlns:xlink="http://www.w3.org/1999/xlink" width="162" height="18" viewBox="0 0 162 18">
    <defs>
        <path id="a" d="M.09.009h23.521v14.49H.091z"/>
    </defs>
    <g fill="none" fill-rule="evenodd">
        <path fill="#2DA8FF" d="M21.815 3.058A7.111 7.111 0 0 0 16.6 5.372l-6.976 7.19c-.715.729-1.61 1.147-2.455 1.147-1.798 0-3.26-1.501-3.26-3.346 0-1.844 1.462-3.345 3.26-3.345.889 0 1.73.377 2.337 1.019l2.79-2.805C10.953 3.826 9.1 3.008 7.168 3.008 3.216 3.008 0 6.308 0 10.363c0 4.056 3.216 7.355 7.169 7.355 1.812 0 3.527-.727 4.99-2.11l.006.006.236-.244.123-.128 6.86-7.07.082-.076c.78-.72 1.482-1.028 2.349-1.028 1.798 0 3.26 1.5 3.26 3.345 0 1.845-1.462 3.346-3.26 3.346-1.35 0-2.518-.84-3.01-2.06l-2.859 2.933c1.328 1.94 3.51 3.137 5.869 3.137 3.953 0 7.168-3.3 7.168-7.356 0-4.055-3.215-7.355-7.168-7.355M44.158 4.635c.925.994 1.388 2.326 1.388 3.995v9.003h-3.998V9.83c0-.906-.246-1.62-.74-2.144-.493-.524-1.164-.786-2.011-.786-.987.018-1.766.369-2.337 1.052-.57.684-.856 1.558-.856 2.624v7.058h-3.998V3.303h3.998v2.504c.969-1.74 2.578-2.628 4.828-2.664 1.558 0 2.8.497 3.726 1.492M61.551 4.635c.926.994 1.39 2.326 1.39 3.995v9.003h-3.999V9.83c0-.906-.246-1.62-.74-2.144-.493-.524-1.164-.786-2.012-.786-.986.018-1.765.369-2.336 1.052-.571.684-.857 1.558-.857 2.624v7.058H49V3.303h3.998v2.504c.97-1.74 2.579-2.628 4.829-2.664 1.558 0 2.8.497 3.725 1.492M75.505 9.296c-.035-.94-.329-1.695-.883-2.264-.554-.568-1.29-.852-2.206-.852-.866 0-1.588.28-2.168.839-.58.56-.948 1.318-1.103 2.277h6.36zm2.012-4.128c1.168 1.331 1.752 3.187 1.752 5.567 0 .426-.009.754-.026.985h-10.02c.224.906.657 1.612 1.298 2.118.64.506 1.41.759 2.31.759.658 0 1.29-.129 1.895-.386a5.005 5.005 0 0 0 1.636-1.132l2.102 2.184a7.072 7.072 0 0 1-2.583 1.878c-1.012.435-2.141.652-3.387.652-1.472 0-2.757-.301-3.856-.905a6.267 6.267 0 0 1-2.544-2.558c-.597-1.1-.895-2.37-.895-3.808 0-1.456.302-2.74.908-3.85a6.444 6.444 0 0 1 2.545-2.583c1.09-.613 2.336-.92 3.738-.92 2.25 0 3.959.667 5.127 1.999zM87.914 17.946c-3.99 0-7.235-3.33-7.235-7.424s3.246-7.425 7.235-7.425c2.384 0 4.614 1.206 5.967 3.225l.042.063-2.953 1.867-.038-.053a3.712 3.712 0 0 0-3.018-1.547c-2.08 0-3.771 1.736-3.771 3.87 0 2.133 1.692 3.87 3.771 3.87 1.244 0 2.408-.63 3.113-1.685l.037-.056 2.997 1.786-.04.064c-1.337 2.157-3.62 3.445-6.107 3.445M105.151 16.834c-.519.32-1.094.564-1.726.733a7.373 7.373 0 0 1-1.908.253c-1.298 0-2.354-.382-3.167-1.146-.814-.763-1.22-1.855-1.22-3.276V6.766h-1.947V3.942h1.946V1.738L101.102 0v3.942h3.79v2.85h-3.79v5.914c0 1.1.423 1.651 1.272 1.651.588 0 1.237-.177 1.947-.533l.83 3.01zM116.574 9.296c-.035-.94-.329-1.695-.883-2.264-.554-.568-1.29-.852-2.206-.852-.866 0-1.588.28-2.168.839-.58.56-.947 1.318-1.103 2.277h6.36zm2.012-4.128c1.168 1.331 1.752 3.187 1.752 5.567 0 .426-.008.754-.026.985h-10.02c.224.906.657 1.612 1.298 2.118.64.506 1.41.759 2.31.759.658 0 1.29-.129 1.895-.386a5.005 5.005 0 0 0 1.636-1.132l2.103 2.184a7.072 7.072 0 0 1-2.583 1.878c-1.013.435-2.142.652-3.388.652-1.472 0-2.757-.301-3.856-.905a6.267 6.267 0 0 1-2.544-2.558c-.597-1.1-.895-2.37-.895-3.808 0-1.456.302-2.74.908-3.85a6.443 6.443 0 0 1 2.545-2.583c1.09-.613 2.336-.92 3.738-.92 2.25 0 3.959.667 5.127 1.999zM129.943 14.277c.606-.408.97-.923 1.09-1.545v-1.278h-3.14c-.78 0-1.355.129-1.727.386-.372.258-.558.67-.558 1.239 0 .55.195.99.584 1.318.39.329.922.493 1.597.493.83 0 1.548-.204 2.154-.613zm1.117 3.356v-1.678a4.492 4.492 0 0 1-1.818 1.385c-.744.32-1.6.48-2.57.48-1.47 0-2.64-.413-3.504-1.239-.866-.825-1.298-1.904-1.298-3.236 0-1.35.462-2.402 1.388-3.156.926-.755 2.237-1.141 3.934-1.16h3.842v-.265c0-.764-.247-1.354-.74-1.772-.493-.417-1.216-.626-2.168-.626-1.298 0-2.683.418-4.154 1.252l-1.246-2.823c1.108-.568 2.146-.986 3.116-1.252.969-.267 2.033-.4 3.193-.4 1.869 0 3.318.453 4.348 1.359 1.03.905 1.553 2.166 1.57 3.782l.027 9.35h-3.92z"/>
        <g transform="translate(138.342 3.134)">
            <mask id="b" fill="#fff">
                <use xlink:href="#a"/>
            </mask>
            <path fill="#2DA8FF" d="M22.248 1.487c.909.986 1.363 2.322 1.363 4.01v9.002H19.64V6.695c0-.923-.242-1.642-.727-2.158-.484-.515-1.142-.772-1.973-.772-.952.018-1.705.364-2.258 1.039-.554.675-.83 1.545-.83 2.61v7.085H9.877V6.695c0-.906-.238-1.62-.714-2.144s-1.13-.786-1.96-.786c-.952.018-1.71.364-2.271 1.039-.563.675-.844 1.545-.844 2.61v7.085H.09V.17h3.998v2.477C5.058.924 6.633.045 8.814.009c1.176 0 2.171.289 2.985.866.813.577 1.393 1.39 1.74 2.437.45-1.083 1.103-1.9 1.96-2.45.856-.55 1.882-.835 3.076-.853 1.54 0 2.765.493 3.673 1.478" mask="url(#b)"/>
        </g>
    </g>
</svg>
