<?xml version="1.0" encoding="UTF-8"?>
<svg width="146px" height="80px" viewBox="0 0 146 80" version="1.1" xmlns="http://www.w3.org/2000/svg" xmlns:xlink="http://www.w3.org/1999/xlink">
    <!-- Generator: Sketch 58 (84663) - https://sketch.com -->
    <title>Group 21 Copy 2</title>
    <desc>Created with Sketch.</desc>
    <defs>
        <linearGradient x1="50%" y1="0%" x2="50%" y2="100%" id="linearGradient-1">
            <stop stop-color="#FFFFFF" stop-opacity="0" offset="0%"></stop>
            <stop stop-color="#FFFFFF" stop-opacity="0" offset="100%"></stop>
        </linearGradient>
        <rect id="path-2" x="0" y="0" width="150" height="90"></rect>
        <filter x="-62.3%" y="-62.3%" width="224.6%" height="224.6%" filterUnits="objectBoundingBox" id="filter-4">
            <feOffset dx="0" dy="19" in="SourceAlpha" result="shadowOffsetOuter1"></feOffset>
            <feGaussianBlur stdDeviation="11.5" in="shadowOffsetOuter1" result="shadowBlurOuter1"></feGaussianBlur>
            <feColorMatrix values="0 0 0 0 0   0 0 0 0 0   0 0 0 0 0  0 0 0 0.206351902 0" type="matrix" in="shadowBlurOuter1" result="shadowMatrixOuter1"></feColorMatrix>
            <feMerge>
                <feMergeNode in="shadowMatrixOuter1"></feMergeNode>
                <feMergeNode in="SourceGraphic"></feMergeNode>
            </feMerge>
        </filter>
        <linearGradient x1="24.3389529%" y1="39.6482615%" x2="74.5539638%" y2="60.1662229%" id="linearGradient-5">
            <stop stop-color="#DFE7EF" offset="0%"></stop>
            <stop stop-color="#BFD8EE" offset="100%"></stop>
        </linearGradient>
    </defs>
    <g id="Dashboard" stroke="none" stroke-width="1" fill="none" fill-rule="evenodd">
        <g id="Group-21-Copy-2" transform="translate(-2.000000, -10.000000)">
            <mask id="mask-3" fill="white">
                <use xlink:href="#path-2"></use>
            </mask>
            <use id="Rectangle-28-Copy-2" fill="url(#linearGradient-1)" xlink:href="#path-2"></use>
            <g id="tc-05" filter="url(#filter-4)" mask="url(#mask-3)">
                <g transform="translate(10.000000, 10.000000)">
                    <polygon id="Path" fill="#1A7DD8" points="80.9939649 17.4593023 84.885323 12.3029716 91.5657662 15.7377261 88.1336885 23.0439276 81.9542786 19.7855297"></polygon>
                    <polygon id="Path" fill="#2998FF" points="81.9292269 10.9760982 93.6367036 17.1485788 97.4612573 7.79328165 87.4155409 2.97286822"></polygon>
                    <path d="M46.2357668,5.61225903 C49.1389134,5.60639985 51.4971285,7.95511535 51.5029877,10.858262 C51.503002,10.8653206 51.503002,10.8723792 51.5029878,10.8794379 L51.4723732,26.1089415 C51.4665068,29.0272399 49.1022313,31.3915343 46.183933,31.397424 C43.2807864,31.4032832 40.9225713,29.0545677 40.9167121,26.1514211 C40.9166979,26.1443625 40.9166978,26.1373038 40.916712,26.1302452 L40.9473266,10.9007415 C40.953193,7.9824432 43.3174685,5.6181488 46.2357668,5.61225903 Z" id="Rectangle" fill="#1A7DD8" transform="translate(46.209850, 18.504842) rotate(-22.700000) translate(-46.209850, -18.504842) "></path>
                    <ellipse id="Oval" fill="#2998FF" transform="translate(64.854138, 65.000448) rotate(-19.020000) translate(-64.854138, -65.000448) " cx="64.8541376" cy="65.0004479" rx="50.6015081" ry="50.8274854"></ellipse>
                    <path d="M105.628099,41.4857881 L105.419335,41.3598191 L104.333763,40.6963824 C115.265132,58.5813872 112.828159,81.6305504 98.4015461,96.8039629 C83.9749331,111.977375 61.1879339,115.457913 42.9321399,105.276486 C42.9321399,105.536822 42.9321399,105.797158 42.8653355,106.049096 C61.2004812,116.095268 83.9407043,112.664096 98.5370188,97.6490414 C113.133333,82.6339864 116.029828,59.6929717 105.628099,41.4857881 Z" id="Path" fill="#FFFFFF" opacity="0.267926897"></path>
                    <path d="M23.066172,46.4489664 C27.7759925,35.5196281 36.5077834,26.8466325 47.4330885,22.246124 C48.9250542,21.624677 50.4281539,21.08441 51.9423877,20.625323 C51.8684543,20.3965536 51.8071237,20.1638574 51.7586755,19.9282946 C50.1976242,20.4093148 48.6619205,20.9699017 47.1575202,21.6078811 C36.2140526,26.2032801 27.4311543,34.8317158 22.6068916,45.7267442 C22.7751176,45.9574063 22.9285233,46.198638 23.066172,46.4489664 L23.066172,46.4489664 Z" id="Path" fill="#FFFFFF" opacity="0.454636347"></path>
                    <circle id="Oval" fill="url(#linearGradient-5)" transform="translate(65.178729, 64.875388) rotate(-45.000000) translate(-65.178729, -64.875388) " cx="65.1787295" cy="64.8753883" r="42.1477393"></circle>
                    <polygon id="Path" fill="#2998FF" points="32.4020914 8.44832041 33.9302427 14.6627907 52.2847604 6.5503876 49.3370148 1.44444444"></polygon>
                    <path d="M60.4933549,63.4463824 C61.6652381,63.849073 62.813837,64.3172874 63.9337831,64.8488372 C65.0344007,65.3700378 66.0853709,65.9912672 67.0735914,66.7047804 L78.6725109,34.7338501 L60.4933549,63.4463824 Z" id="Path" fill="#212B53"></path>
                    <path d="M67.2573036,66.1757106 L76.2257986,41.4437984 C75.6830126,42.2835917 75.1235255,43.1989664 74.5974406,44.0975452 C73.1778464,46.5665375 71.8584589,49.1363049 70.4221636,51.5465116 C67.8251413,55.8462532 65.152964,60.0956072 62.5976945,64.4205426 C64.1900624,64.8945062 65.7471421,65.4810225 67.2573036,66.1757106 Z" id="Path" fill="#12375A"></path>
                    <ellipse id="Oval" fill="#FFFFFF" transform="translate(64.084557, 64.987068) rotate(-21.250000) translate(-64.084557, -64.987068) " cx="64.0845567" cy="64.9870683" rx="3.6519187" ry="3.66718368"></ellipse>
                    <path d="M62.6143956,65.5962532 C62.8669936,66.1942142 63.4533126,66.5798833 64.0992948,66.5729904 C64.745277,66.5660976 65.3233272,66.1680045 65.5632524,65.5647881 C65.8031777,64.9615717 65.6575878,64.2723803 65.1945344,63.8193563 C64.731481,63.3663323 64.0424271,63.2389577 63.449451,63.49677 C62.6445245,63.8467336 62.2715103,64.78456 62.6143956,65.5962532 L62.6143956,65.5962532 Z" id="Path" fill="#212B53"></path>
                    <polygon id="Rectangle" fill="#E6E6E6" transform="translate(51.147046, 31.160539) rotate(-22.700000) translate(-51.147046, -31.160539) " points="50.6214778 26.5256587 51.6912518 26.5234996 51.6726132 35.7954187 50.6028392 35.7975777"></polygon>
                    <polygon id="Rectangle" fill="#E6E6E6" transform="translate(98.600544, 50.736657) rotate(-22.700000) translate(-98.600544, -50.736657) " points="93.9840443 50.2089601 103.219203 50.1903216 103.217044 51.2643538 93.9818852 51.2829924"></polygon>
                    <polygon id="Rectangle" fill="#E6E6E6" transform="translate(31.693957, 78.871331) rotate(-22.710000) translate(-31.693957, -78.871331) " points="27.0774541 78.3436374 36.3126194 78.3249924 36.3104596 79.3990239 27.0752943 79.4176689"></polygon>
                    <polygon id="Rectangle" fill="#E6E6E6" transform="translate(99.699908, 79.046244) rotate(-67.710000) translate(-99.699908, -79.046244) " points="99.3535332 76.0048601 100.058387 76.0034634 100.046282 82.0876288 99.3414282 82.0890256"></polygon>
                    <polygon id="Rectangle" fill="#E6E6E6" transform="translate(30.140078, 50.372502) rotate(-67.700000) translate(-30.140078, -50.372502) " points="29.7937056 47.3311154 30.498559 47.3297182 30.4864497 53.4138878 29.7815964 53.415285"></polygon>
                    <polygon id="Rectangle" fill="#E6E6E6" transform="translate(79.182615, 29.711967) rotate(-67.710000) translate(-79.182615, -29.711967) " points="76.1289464 29.36701 82.2376794 29.3549051 82.2362826 30.0569242 76.1275497 30.0690291"></polygon>
                    <polygon id="Rectangle" fill="#E6E6E6" transform="translate(90.412336, 36.915371) rotate(-47.320000) translate(-90.412336, -36.915371) " points="87.3644053 36.5723281 93.4622496 36.5551387 93.4602662 37.2584142 87.3624219 37.2756035"></polygon>
                    <polygon id="Rectangle" fill="#E6E6E6" transform="translate(64.995219, 26.893046) rotate(-89.880000) translate(-64.995219, -26.893046) " points="61.9383758 26.5423591 68.0520708 26.5422868 68.0520624 27.2437334 61.9383675 27.2438056"></polygon>
                    <polygon id="Rectangle" fill="#E6E6E6" transform="translate(37.899726, 38.425982) rotate(-45.940000) translate(-37.899726, -38.425982) " points="37.5565938 35.3790349 38.2600955 35.377046 38.2428589 41.4729295 37.5393572 41.4749183"></polygon>
                    <polygon id="Rectangle" fill="#E6E6E6" transform="translate(27.319759, 64.634285) rotate(-89.900000) translate(-27.319759, -64.634285) " points="26.9670756 61.594687 27.6725019 61.59468 27.6724417 67.6738834 26.9670154 67.6738904"></polygon>
                    <polygon id="Rectangle" fill="#E6E6E6" transform="translate(102.514131, 64.769002) rotate(-89.900000) translate(-102.514131, -64.769002) " points="102.161448 61.7294036 102.866874 61.7293967 102.866814 67.8086 102.161388 67.808607"></polygon>
                    <path d="M81.5200498,56.375323 C81.6241674,58.3836968 82.9211865,60.1311706 84.8061636,60.8027039 C86.6911407,61.4742372 88.7927509,60.9375435 90.1307807,59.4429425 C91.4688105,57.9483416 91.7796792,55.7902573 90.9183943,53.9752433 C90.0571093,52.1602293 88.1933368,51.0458283 86.19636,51.1518088 C83.4711397,51.2964375 81.3779633,53.6345494 81.5200498,56.375323 Z" id="Path" fill="#FFFFFF"></path>
                    <path d="M76.5765218,52.5542636 C76.6161177,53.5787024 77.2690353,54.4768441 78.2276784,54.8255647 C79.1863215,55.1742854 80.259479,54.9040292 80.9415753,54.1421166 C81.6236715,53.380204 81.7786556,52.2786062 81.3335128,51.3562974 C80.88837,50.4339886 79.9318886,49.8749326 78.914677,49.9425065 C77.5605106,50.0324644 76.5238097,51.190476 76.5765218,52.5542636 Z" id="Path" fill="#FFFFFF"></path>
                </g>
            </g>
        </g>
    </g>
</svg>